<svg xmlns="http://www.w3.org/2000/svg" xmlns:xlink="http://www.w3.org/1999/xlink" width="29.981" height="29.981" viewBox="0 0 29.981 29.981"><defs><style>.a{fill:none;}.b{clip-path:url(#a);}.c{fill:#c4c4c4;}</style><clipPath id="a"><rect class="a" width="29.981" height="29.981"/></clipPath></defs><g class="b"><path class="c" d="M26.468,2.342H25.063V0H22.72V2.342H7.261V0H4.919V2.342H3.513A3.517,3.517,0,0,0,0,5.856V26.468a3.517,3.517,0,0,0,3.513,3.513H26.468a3.517,3.517,0,0,0,3.513-3.513V5.856A3.517,3.517,0,0,0,26.468,2.342Zm1.171,24.126a1.172,1.172,0,0,1-1.171,1.171H3.513a1.172,1.172,0,0,1-1.171-1.171V11.009h25.3Zm0-17.8H2.342V5.856A1.172,1.172,0,0,1,3.513,4.685H4.919V7.027H7.261V4.685H22.72V7.027h2.342V4.685h1.405a1.172,1.172,0,0,1,1.171,1.171Z"/><g transform="translate(4.45 13.468)"><rect class="c" width="2.342" height="2.342"/></g><g transform="translate(9.135 13.468)"><rect class="c" width="2.342" height="2.342"/></g><g transform="translate(13.82 13.468)"><rect class="c" width="2.342" height="2.342"/></g><g transform="translate(18.504 13.468)"><rect class="c" width="2.342" height="2.342"/></g><g transform="translate(23.189 13.468)"><rect class="c" width="2.342" height="2.342"/></g><g transform="translate(4.45 18.153)"><rect class="c" width="2.342" height="2.342"/></g><g transform="translate(9.135 18.153)"><rect class="c" width="2.342" height="2.342"/></g><g transform="translate(13.82 18.153)"><rect class="c" width="2.342" height="2.342"/></g><g transform="translate(18.504 18.153)"><rect class="c" width="2.342" height="2.342"/></g><g transform="translate(4.45 22.837)"><rect class="c" width="2.342" height="2.342"/></g><g transform="translate(9.135 22.837)"><rect class="c" width="2.342" height="2.342"/></g><g transform="translate(13.82 22.837)"><rect class="c" width="2.342" height="2.342"/></g><g transform="translate(18.504 22.837)"><rect class="c" width="2.342" height="2.342"/></g><g transform="translate(23.189 18.153)"><rect class="c" width="2.342" height="2.342"/></g></g></svg>