<svg xmlns="http://www.w3.org/2000/svg" xmlns:xlink="http://www.w3.org/1999/xlink" width="32" height="32" viewBox="0 0 32 32"><defs><style>.a{fill:none;}.b{clip-path:url(#a);}.c{fill:#5ac06b;}.d{fill:#fff;}</style><clipPath id="a"><rect class="a" width="32" height="32"/></clipPath></defs><g class="b"><rect class="c" width="32" height="32"/><path class="d" d="M18.469,3.7c-2.218-1.615-3.8-1.58-4.4-1.483a.632.632,0,0,0-.41.261L5.6,13.6a2.868,2.868,0,0,0-.541,1.531l-.347,6.587a.657.657,0,0,0,.89.648l6.157-2.354a2.87,2.87,0,0,0,1.3-.994L21.113,7.9a.657.657,0,0,0,.117-.5c-.1-.616-.57-2.111-2.761-3.7Zm-6.692,15-2.393.924a.223.223,0,0,1-.259-.072,6.041,6.041,0,0,0-1.259-1.206,6.122,6.122,0,0,0-1.534-.827.225.225,0,0,1-.148-.225l.143-2.561.643-.884a5,5,0,0,1,3.318,1.169,5.013,5.013,0,0,1,2.133,2.8l-.644.886Z" transform="translate(5.391 3.008) rotate(7)"/></g></svg>