<svg xmlns="http://www.w3.org/2000/svg" xmlns:xlink="http://www.w3.org/1999/xlink" width="27" height="27" viewBox="0 0 27 27"><defs><style>.a{fill:none;}.b{clip-path:url(#a);}.c{fill:#c4c4c4;}</style><clipPath id="a"><rect class="a" width="27" height="27"/></clipPath></defs><g class="b"><path class="c" d="M25.313,27H1.688A1.688,1.688,0,0,1,0,25.313V1.688A1.688,1.688,0,0,1,1.688,0h20.25L27,5.063v20.25A1.688,1.688,0,0,1,25.313,27ZM6.75,22.781a.844.844,0,0,0,.844.844H19.406a.843.843,0,0,0,.844-.844v-6.75a.843.843,0,0,0-.844-.844H7.594a.844.844,0,0,0-.844.844ZM18.563,4.219a.844.844,0,0,0-1.687,0V6.75a.844.844,0,0,0,1.688,0Zm5.063,1.688L21.094,3.375H20.25V9.281a.843.843,0,0,1-.844.844H7.594a.844.844,0,0,1-.844-.844V3.375H4.219a.844.844,0,0,0-.844.844V22.781a.844.844,0,0,0,.844.844h.844V14.344a.844.844,0,0,1,.844-.844H21.094a.843.843,0,0,1,.844.844v9.281h.844a.843.843,0,0,0,.844-.844Z"/></g></svg>