<svg xmlns="http://www.w3.org/2000/svg" xmlns:xlink="http://www.w3.org/1999/xlink" width="41.163" height="41.163" viewBox="0 0 41.163 41.163"><defs><style>.a,.c{fill:none;}.b{clip-path:url(#a);}.c{stroke:#c4c4c4;stroke-width:2px;}</style><clipPath id="a"><rect class="a" width="41.163" height="41.163"/></clipPath></defs><g class="b"><path class="c" d="M19.193,0A19.193,19.193,0,1,0,38.386,19.193,19.194,19.194,0,0,0,19.193,0Zm0,4.8a14.382,14.382,0,0,1,13.514,9.6H5.679A14.382,14.382,0,0,1,19.193,4.8Zm0,16.794a2.4,2.4,0,1,1,2.4-2.4A2.4,2.4,0,0,1,19.193,21.592ZM4.8,19.193c6.556,0,11.865,6.317,11.976,14.151A14.392,14.392,0,0,1,4.8,19.193ZM21.611,33.344c.112-7.834,5.421-14.151,11.976-14.151A14.392,14.392,0,0,1,21.611,33.344Z" transform="translate(1.388 1.388)"/></g></svg>