<svg xmlns="http://www.w3.org/2000/svg" xmlns:xlink="http://www.w3.org/1999/xlink" width="42.686" height="41.665" viewBox="0 0 42.686 41.665"><defs><style>.a,.c{fill:none;}.b{clip-path:url(#a);}.c,.d{stroke:#fff;}.c{stroke-width:3.5px;}.d,.e{fill:#fff;}.d{stroke-width:0.806px;}</style><clipPath id="a"><rect class="a" width="42.686" height="41.665"/></clipPath></defs><g class="b"><path class="c" d="M31.938,39.559H10.254a8.617,8.617,0,0,1-6.128-2.514,8.26,8.26,0,0,1-2.514-5.971V10.1A8.131,8.131,0,0,1,4.126,4.126a8.617,8.617,0,0,1,6.128-2.514H31.938a8.617,8.617,0,0,1,6.128,2.514A8.26,8.26,0,0,1,40.58,10.1V31a8.131,8.131,0,0,1-2.514,5.971A8.379,8.379,0,0,1,31.938,39.559Z" transform="translate(0.247 0.247)"/><path class="d" d="M33.845,26.21a1.2,1.2,0,0,0-.943-.55l-4.714-.629-4.321-3.771a2.074,2.074,0,0,0-1.493-.55H15.54a1.484,1.484,0,0,0-1.414.864l-1.964,3.3L9.8,25.582A1.55,1.55,0,0,0,8.783,27.31L9.1,29.667a2.027,2.027,0,0,0,1.964,1.807H13.1A2.691,2.691,0,0,0,15.7,33.752a2.563,2.563,0,0,0,2.593-2.278H27.01A2.691,2.691,0,0,0,29.6,33.752,2.563,2.563,0,0,0,32.2,31.474a1.6,1.6,0,0,0,1.493-1.414l.393-2.593A1.34,1.34,0,0,0,33.845,26.21Z" transform="translate(0.068 -0.232)"/><path class="e" d="M12.974,13.189A48.139,48.139,0,0,0,19.26,10.6a39.433,39.433,0,0,0,6.678-4.714L29.395,10.6s-6.521,4.792-13.356,5.421" transform="translate(-0.038 0.14)"/></g></svg>