<svg xmlns="http://www.w3.org/2000/svg" xmlns:xlink="http://www.w3.org/1999/xlink" width="2397" height="553" viewBox="0 0 2397 553"><defs><style>.a{fill:none;}.b{clip-path:url(#a);}.c,.d{fill:#e0e0e0;}.d{stroke:#e0e0e0;}</style><clipPath id="a"><rect class="a" width="2397" height="553"/></clipPath></defs><g class="b"><ellipse class="c" cx="115.5" cy="114" rx="115.5" ry="114" transform="translate(275 24)"/><ellipse class="c" cx="76" cy="75" rx="76" ry="75" transform="translate(430 52)"/><ellipse class="c" cx="115.5" cy="114" rx="115.5" ry="114" transform="translate(0 50)"/><ellipse class="c" cx="155" cy="153" rx="155" ry="153" transform="translate(660 24)"/><path class="d" d="M30.965,8.269a1.366,1.366,0,0,0-1.075-.627l-5.373-.716-4.926-4.3A2.364,2.364,0,0,0,17.889,2H10.1a1.692,1.692,0,0,0-1.612.985L6.247,6.747,3.56,7.553A1.767,1.767,0,0,0,2.4,9.523l.358,2.687a2.31,2.31,0,0,0,2.239,2.06H7.322a3.067,3.067,0,0,0,2.955,2.6,2.922,2.922,0,0,0,2.955-2.6h9.941a3.067,3.067,0,0,0,2.955,2.6,2.922,2.922,0,0,0,2.955-2.6,1.821,1.821,0,0,0,1.7-1.612L31.233,9.7A1.528,1.528,0,0,0,30.965,8.269Z" transform="translate(200.839 67.2)"/><path class="d" d="M30.965,8.269a1.366,1.366,0,0,0-1.075-.627l-5.373-.716-4.926-4.3A2.364,2.364,0,0,0,17.889,2H10.1a1.692,1.692,0,0,0-1.612.985L6.247,6.747,3.56,7.553A1.767,1.767,0,0,0,2.4,9.523l.358,2.687a2.31,2.31,0,0,0,2.239,2.06H7.322a3.067,3.067,0,0,0,2.955,2.6,2.922,2.922,0,0,0,2.955-2.6h9.941a3.067,3.067,0,0,0,2.955,2.6,2.922,2.922,0,0,0,2.955-2.6,1.821,1.821,0,0,0,1.7-1.612L31.233,9.7A1.528,1.528,0,0,0,30.965,8.269Z" transform="translate(2154.839 3.2)"/><path class="d" d="M30.965,8.269a1.366,1.366,0,0,0-1.075-.627l-5.373-.716-4.926-4.3A2.364,2.364,0,0,0,17.889,2H10.1a1.692,1.692,0,0,0-1.612.985L6.247,6.747,3.56,7.553A1.767,1.767,0,0,0,2.4,9.523l.358,2.687a2.31,2.31,0,0,0,2.239,2.06H7.322a3.067,3.067,0,0,0,2.955,2.6,2.922,2.922,0,0,0,2.955-2.6h9.941a3.067,3.067,0,0,0,2.955,2.6,2.922,2.922,0,0,0,2.955-2.6,1.821,1.821,0,0,0,1.7-1.612L31.233,9.7A1.528,1.528,0,0,0,30.965,8.269Z" transform="translate(1263.839 67)"/><circle class="c" cx="213.5" cy="213.5" r="213.5" transform="translate(835 41)"/><circle class="c" cx="147" cy="147" r="147" transform="translate(1331 24)"/><circle class="c" cx="224" cy="224" r="224" transform="translate(1949 20)"/><circle class="c" cx="101" cy="101" r="101" transform="translate(1720 24)"/><path class="c" d="M0,0H2246.2V469.067H0Z" transform="translate(92 83.933)"/><path class="a" d="M0,0H2246.2V278.2H0Z" transform="translate(92 142)"/></g></svg>