<svg xmlns="http://www.w3.org/2000/svg" xmlns:xlink="http://www.w3.org/1999/xlink" width="360.7" height="87" viewBox="0 0 360.7 87"><defs><style>.a{fill:none;}.b{clip-path:url(#a);}.c,.f{fill:#ee5353;}.d,.g,.h{fill:#fff;}.d{font-size:70px;font-family:Montserrat-ExtraBold, Montserrat;font-weight:800;}.e{clip-path:url(#b);}.f,.g{stroke:#fff;}.f{stroke-width:5px;}</style><clipPath id="a"><rect class="a" width="360.7" height="87"/></clipPath><clipPath id="b"><rect class="a" width="54.6" height="53.3"/></clipPath></defs><g class="b"><rect class="c" width="360.7" height="84.8"/><text class="d" transform="translate(76 69)"><tspan x="0" y="0">RUNEO</tspan></text><g class="e" transform="translate(12.7 17.5)"><path class="f" d="M40.6,50.3H13a10.968,10.968,0,0,1-7.8-3.2A10.513,10.513,0,0,1,2,39.5V12.8A10.349,10.349,0,0,1,5.2,5.2,10.968,10.968,0,0,1,13,2H40.6a10.968,10.968,0,0,1,7.8,3.2,10.513,10.513,0,0,1,3.2,7.6V39.4A10.349,10.349,0,0,1,48.4,47,10.665,10.665,0,0,1,40.6,50.3Z" transform="translate(0.5 0.5)"/><path class="g" d="M42.8,32.7a1.525,1.525,0,0,0-1.2-.7l-6-.8-5.5-4.8a2.64,2.64,0,0,0-1.9-.7H19.5a1.889,1.889,0,0,0-1.8,1.1L15.2,31l-3,.9a1.973,1.973,0,0,0-1.3,2.2l.4,3a2.579,2.579,0,0,0,2.5,2.3h2.6a3.425,3.425,0,0,0,3.3,2.9A3.263,3.263,0,0,0,23,39.4H34.1a3.425,3.425,0,0,0,3.3,2.9,3.263,3.263,0,0,0,3.3-2.9,2.033,2.033,0,0,0,1.9-1.8l.5-3.3A1.706,1.706,0,0,0,42.8,32.7Z" transform="translate(0.5 0.5)"/><path class="h" d="M16.1,16.6a61.273,61.273,0,0,0,8-3.3,50.191,50.191,0,0,0,8.5-6l4.4,6s-8.3,6.1-17,6.9" transform="translate(0.5 0.5)"/></g></g></svg>