<svg xmlns="http://www.w3.org/2000/svg" 
    xmlns:xlink="http://www.w3.org/1999/xlink" width="970" height="368.999" viewBox="0 0 970 368.999">
    <defs>
        <style>.a{fill:none;}.b{clip-path:url(#a);}.c,.d{fill:#62a5a5;}.d{opacity:0;}.e{fill:#414141;}.f{fill:#fff;}</style>
        <clipPath id="a">
            <rect class="a" width="970" height="368.999"/>
        </clipPath>
    </defs>
    <g class="b">
        <g transform="translate(92 -494)">
            <ellipse class="c" cx="115.5" cy="114" rx="115.5" ry="114" transform="translate(183 494)"/>
            <ellipse class="c" cx="76" cy="75" rx="76" ry="75" transform="translate(338 522)"/>
            <ellipse class="c" cx="115.5" cy="114" rx="115.5" ry="114" transform="translate(-92 520)"/>
            <ellipse class="d" cx="155" cy="153" rx="155" ry="153" transform="translate(568 494)"/>
            <path class="c" d="M0,0H768V292.063H0Z" transform="translate(0 553.933)"/>
        </g>
        <path class="e" d="M481.632,107.042c-4.5-6-10.5-10.5-18.007-10.5l-90.036-12L291.055,12.5C283.552,5,273.048,2,262.544,2H131.992c-12,0-22.509,6-27.011,16.507L67.466,81.532,22.448,95.037C8.942,99.539-.061,114.545,2.94,128.051l6,45.018c3,19.508,18.007,34.514,37.515,34.514H85.473c4.5,24.01,24.01,43.517,49.52,43.517s46.519-18.007,49.52-43.517H351.079c4.5,24.01,24.01,43.517,49.52,43.517s46.519-18.007,49.52-43.517c15.006-1.5,27.011-12,28.511-27.011l7.5-49.52C489.135,120.548,486.133,113.045,481.632,107.042Z" transform="translate(245.139 101)"/>
        <g transform="translate(308.465 -283.587)">
            <g transform="translate(55.936 392.337)">
                <g transform="translate(0 0)">
                    <path class="f" d="M215.533,116.171l6.571-3.4c5.991-3.1,7.934-9.79,4.338-14.95-2.658-3.815-7.6-5.717-12.417-5.2a12.228,12.228,0,0,0-.241-8.272c-2.868-7.42-12.177-11.432-20.792-8.962S179.719,85.877,182.587,93.3a15.511,15.511,0,0,0,10.591,9.013l-18.565,9.595L102.036,80.522l-37.4-29.075L41.991,8.7C39.09,3.22,31.588.806,25.23,3.3S16.07,12.265,18.97,17.74L42.706,62.55a11.145,11.145,0,0,0,3.042,3.573L78.979,91.905c-1.735,3.228-22.949,42.72-32.235,60.007a20.252,20.252,0,0,0-1.473,16.059c2.912,8.85,7.557,23.023,10.85,33.35L10.447,240.19a11.837,11.837,0,0,0-.129,18.492,16.961,16.961,0,0,0,21.471.111l51.988-44.244a11.885,11.885,0,0,0,3.974-12.75l-7.543-23.761c1.591.78-1.767-.345,45.934,14.517l-10.473,54.811c-1.516,7.938,5.583,15.2,15,15.2,7.3,0,13.738-4.548,14.962-10.955l12.522-65.532c1.187-6.216-2.939-12.277-9.816-14.419l-32.861-10.239,22.65-42.163,30.513,14.747a14.431,14.431,0,0,0,12.7-.16l22.9-11.836,7.864,20.346c1.121,2.9,4.761,4.471,8.131,3.5s5.19-4.1,4.069-7Z" transform="translate(-5.936 -2.318)"/>
                </g>
            </g>
            <g transform="translate(170.663 432.759)">
                <circle class="f" cx="26.22" cy="26.22" r="26.22"/>
            </g>
        </g>
    </g>
</svg>